<svg id="Layer_1" data-name="Layer 1" xmlns="http://www.w3.org/2000/svg" viewBox="0 0 285.18 127.49"><defs><style>.cls-1{fill:none;stroke:#fff;stroke-miterlimit:10;}.cls-2{fill:lime;}</style></defs><title>LogoTT</title><path class="cls-1" d="M529.86,443.68v10.94a1,1,0,0,1-.33.75,1.11,1.11,0,0,1-.77.3h-12v40.81a1,1,0,0,1-.33.8,1.1,1.1,0,0,1-.77.3H502.3a1,1,0,0,1-.74-.3,1.1,1.1,0,0,1-.3-.8V455.67H489.21a1.06,1.06,0,0,1-.79-.3,1,1,0,0,1-.31-.75V443.68a1,1,0,0,1,1.1-1.1h39.55a1.11,1.11,0,0,1,.77.3A1,1,0,0,1,529.86,443.68Z" transform="translate(-484.61 -441.25)"/><path class="cls-1" d="M545.86,444a29,29,0,0,1,22.61,0,29.3,29.3,0,0,1,9.29,6.13,28.73,28.73,0,0,1,6.22,9.16,28.06,28.06,0,0,1,0,22.3,28.6,28.6,0,0,1-6.22,9.18,29.55,29.55,0,0,1-41.19,0,28.76,28.76,0,0,1-6.22-9.18,28.06,28.06,0,0,1,0-22.3,28.89,28.89,0,0,1,6.22-9.16A29.3,29.3,0,0,1,545.86,444Zm1.87,35.72a13.49,13.49,0,0,0,18.87,0,13,13,0,0,0,0-18.59,13.49,13.49,0,0,0-18.87,0,13,13,0,0,0,0,18.59Z" transform="translate(-484.61 -441.25)"/><path class="cls-1" d="M627.48,442.85a1,1,0,0,1,.72-.27h14a1,1,0,0,1,.74.3,1.09,1.09,0,0,1,.3.8v52.8a1.1,1.1,0,0,1-.3.8,1,1,0,0,1-.74.3H628.86a1,1,0,0,1-.74-.3,1.07,1.07,0,0,1-.31-.8V469.8L623.69,487a1,1,0,0,1-1.05.82H608.78a.94.94,0,0,1-1-.82l-4.07-17.22v26.68a1,1,0,0,1-.33.8,1.11,1.11,0,0,1-.77.3H589.31a1,1,0,0,1-1.1-1.1v-52.8a1,1,0,0,1,1.1-1.1h13.92a1,1,0,0,1,.71.27q2.26,2.26,5.2,8.12a114.39,114.39,0,0,1,4.76,10.64l1.81,4.73c.19-.48.44-1.15.77-2s1-2.44,1.93-4.73,1.88-4.41,2.78-6.35,1.93-3.92,3.1-5.94A23,23,0,0,1,627.48,442.85Z" transform="translate(-484.61 -441.25)"/><path class="cls-1" d="M526.86,512.75v11a1,1,0,0,1-.33.74,1.11,1.11,0,0,1-.77.3h-12v40.81a1,1,0,0,1-.33.8,1.1,1.1,0,0,1-.77.3H499.3a1,1,0,0,1-.74-.3,1.09,1.09,0,0,1-.3-.8V524.74H486.21a1.06,1.06,0,0,1-.79-.3,1,1,0,0,1-.31-.74v-11a1,1,0,0,1,1.1-1.1h39.55a1.11,1.11,0,0,1,.77.3A1,1,0,0,1,526.86,512.75Z" transform="translate(-484.61 -441.25)"/><path class="cls-1" d="M563.38,512.75a1.09,1.09,0,0,1,.3-.8,1,1,0,0,1,.74-.3h13.31a1,1,0,0,1,.75.3,1.09,1.09,0,0,1,.3.8v52.8a1.09,1.09,0,0,1-.3.8,1,1,0,0,1-.75.3H564.42a1,1,0,0,1-.74-.3,1.09,1.09,0,0,1-.3-.8V545.7h-19.2v19.85a1,1,0,0,1-.33.8,1.1,1.1,0,0,1-.77.3H529.83a1,1,0,0,1-1.1-1.1v-52.8a1,1,0,0,1,1.1-1.1h13.25a1.1,1.1,0,0,1,.77.3,1,1,0,0,1,.33.8v19.86h19.2Z" transform="translate(-484.61 -441.25)"/><path class="cls-1" d="M598.52,513.11a29.17,29.17,0,0,1,22.61,0,29.3,29.3,0,0,1,9.29,6.13,28.84,28.84,0,0,1,6.22,9.16,28.06,28.06,0,0,1,0,22.3,28.75,28.75,0,0,1-6.22,9.19,29.59,29.59,0,0,1-41.19,0A28.75,28.75,0,0,1,583,550.7a28.06,28.06,0,0,1,0-22.3,28.84,28.84,0,0,1,6.22-9.16A29.3,29.3,0,0,1,598.52,513.11Zm1.87,35.72a13.49,13.49,0,0,0,18.87,0,13,13,0,0,0,0-18.59,13.49,13.49,0,0,0-18.87,0,13,13,0,0,0,0,18.59Z" transform="translate(-484.61 -441.25)"/><path class="cls-1" d="M673.87,512.75a1.09,1.09,0,0,1,.3-.8,1,1,0,0,1,.75-.3h13.31a1.11,1.11,0,0,1,.77.3,1,1,0,0,1,.33.8v52.8a1.13,1.13,0,0,1-1.1,1.1H674.48a1,1,0,0,1-.94-.55l-17.21-30.47v29.92a1,1,0,0,1-.33.8,1.11,1.11,0,0,1-.77.3H642a1.1,1.1,0,0,1-.8-.3,1.09,1.09,0,0,1-.3-.8v-52.8a1.09,1.09,0,0,1,.3-.8,1.1,1.1,0,0,1,.8-.3h13.75a.94.94,0,0,1,.88.5l17.27,27.77Z" transform="translate(-484.61 -441.25)"/><path class="cls-1" d="M692.3,566.65a1,1,0,0,1-1.1-1.1v-52.8a1,1,0,0,1,1.1-1.1h32.28a1.11,1.11,0,0,1,.77.3,1,1,0,0,1,.33.8v11a1.13,1.13,0,0,1-1.1,1.1H706.65v7.81h15.51a1,1,0,0,1,1.05,1v11a1.06,1.06,0,0,1-1.05,1.05H706.65v7.86h17.93a1.11,1.11,0,0,1,.77.3,1,1,0,0,1,.33.75v10.94a1,1,0,0,1-.33.8,1.11,1.11,0,0,1-.77.3Z" transform="translate(-484.61 -441.25)"/><path class="cls-1" d="M769.3,512.75v11a1,1,0,0,1-.33.74,1.11,1.11,0,0,1-.77.3H756.15v40.81a1,1,0,0,1-.33.8,1.11,1.11,0,0,1-.77.3H741.74a1,1,0,0,1-.74-.3,1.09,1.09,0,0,1-.3-.8V524.74H728.65a1.09,1.09,0,0,1-.8-.3,1,1,0,0,1-.3-.74v-11a1,1,0,0,1,1.1-1.1H768.2a1.11,1.11,0,0,1,.77.3A1,1,0,0,1,769.3,512.75Z" transform="translate(-484.61 -441.25)"/><path class="cls-2" d="M538.85,449.52v10a.92.92,0,0,1-.29.68,1.05,1.05,0,0,1-.71.27h-11v37.1a.92.92,0,0,1-.3.73,1,1,0,0,1-.7.27H513.81a.93.93,0,0,1-.68-.27,1,1,0,0,1-.28-.73v-37.1h-11a1,1,0,0,1-.72-.27,1,1,0,0,1-.28-.68v-10a1,1,0,0,1,.28-.72.94.94,0,0,1,.72-.28h36a1,1,0,0,1,.71.28A1,1,0,0,1,538.85,449.52Z" transform="translate(-484.61 -441.25)"/><path class="cls-2" d="M553.4,449.85a26.42,26.42,0,0,1,20.55,0,26.62,26.62,0,0,1,8.45,5.57,26.28,26.28,0,0,1,5.65,8.33,25.51,25.51,0,0,1,0,20.27,26,26,0,0,1-5.65,8.35A26.5,26.5,0,0,1,539.3,484a25.51,25.51,0,0,1,0-20.27,26.45,26.45,0,0,1,5.65-8.33A26.84,26.84,0,0,1,553.4,449.85Zm1.7,32.47a12.25,12.25,0,0,0,17.15,0,11.83,11.83,0,0,0,0-16.9,12.25,12.25,0,0,0-17.15,0,11.83,11.83,0,0,0,0,16.9Z" transform="translate(-484.61 -441.25)"/><path class="cls-2" d="M627.6,448.77a.92.92,0,0,1,.65-.25H641a.9.9,0,0,1,.68.28,1,1,0,0,1,.27.72v48a1,1,0,0,1-.27.73.93.93,0,0,1-.68.27h-12.1a.92.92,0,0,1-.67-.27,1,1,0,0,1-.28-.73V473.27l-3.75,15.65a.86.86,0,0,1-.95.75H610.6a.86.86,0,0,1-1-.75L606,473.27v24.25a1,1,0,0,1-.3.73,1,1,0,0,1-.7.27H592.9a1,1,0,0,1-.72-.27,1,1,0,0,1-.28-.73v-48a1,1,0,0,1,.28-.72.94.94,0,0,1,.72-.28h12.65a.89.89,0,0,1,.65.25,30,30,0,0,1,4.73,7.38,104.78,104.78,0,0,1,4.32,9.67l1.65,4.3c.17-.43.4-1,.7-1.82s.89-2.22,1.75-4.3,1.71-4,2.53-5.78,1.76-3.56,2.82-5.4A21,21,0,0,1,627.6,448.77Z" transform="translate(-484.61 -441.25)"/><path class="cls-2" d="M538.85,517.59v9.95a.91.91,0,0,1-.29.68,1.05,1.05,0,0,1-.71.27h-11v37.1a.91.91,0,0,1-.3.73,1,1,0,0,1-.7.27H513.81a.93.93,0,0,1-.68-.27,1,1,0,0,1-.28-.73v-37.1h-11a1,1,0,0,1-.72-.27.94.94,0,0,1-.28-.68v-9.95a1,1,0,0,1,1-1h36a1.06,1.06,0,0,1,.71.28A1,1,0,0,1,538.85,517.59Z" transform="translate(-484.61 -441.25)"/><path class="cls-2" d="M572.05,517.59a1,1,0,0,1,.28-.72.93.93,0,0,1,.67-.28h12.1a.94.94,0,0,1,.68.28,1,1,0,0,1,.27.72v48a1,1,0,0,1-.27.73.93.93,0,0,1-.68.27H573a.92.92,0,0,1-.67-.27,1,1,0,0,1-.28-.73V547.54H554.6v18.05a.94.94,0,0,1-.3.73,1,1,0,0,1-.7.27H541.55a1,1,0,0,1-.72-.27,1,1,0,0,1-.28-.73v-48a1,1,0,0,1,1-1H553.6a1,1,0,0,1,.7.28.92.92,0,0,1,.3.72v18h17.45Z" transform="translate(-484.61 -441.25)"/><path class="cls-2" d="M604,517.92a26.42,26.42,0,0,1,20.55,0,26.62,26.62,0,0,1,8.45,5.57,26.28,26.28,0,0,1,5.65,8.33,25.51,25.51,0,0,1,0,20.27A26.52,26.52,0,0,1,614.28,568a26.17,26.17,0,0,1-24.38-15.95,25.51,25.51,0,0,1,0-20.27,26.45,26.45,0,0,1,5.65-8.33A26.84,26.84,0,0,1,604,517.92Zm1.7,32.47a12.25,12.25,0,0,0,17.15,0,11.83,11.83,0,0,0,0-16.9,12.25,12.25,0,0,0-17.15,0,11.83,11.83,0,0,0,0,16.9Z" transform="translate(-484.61 -441.25)"/><path class="cls-2" d="M672.5,517.59a.94.94,0,0,1,.28-.72.93.93,0,0,1,.67-.28h12.1a1,1,0,0,1,.7.28.92.92,0,0,1,.3.72v48a1,1,0,0,1-1,1h-12.5a.94.94,0,0,1-.85-.5l-15.65-27.7v27.2a.94.94,0,0,1-.3.73,1,1,0,0,1-.7.27h-12a.94.94,0,0,1-1-1v-48a.94.94,0,0,1,.28-.72,1,1,0,0,1,.72-.28H656a.84.84,0,0,1,.8.45l15.7,25.25Z" transform="translate(-484.61 -441.25)"/><path class="cls-2" d="M689.25,566.59a.94.94,0,0,1-1-1v-48a.94.94,0,0,1,.28-.72,1,1,0,0,1,.72-.28H718.6a1,1,0,0,1,.7.28.92.92,0,0,1,.3.72v9.95a1,1,0,0,1-1,1H702.3v7.1h14.1a1,1,0,0,1,.68.28.92.92,0,0,1,.27.67v10a.93.93,0,0,1-.27.68.94.94,0,0,1-.68.27H702.3v7.15h16.3a1,1,0,0,1,.7.28.87.87,0,0,1,.3.67v10a.94.94,0,0,1-.3.73,1,1,0,0,1-.7.27Z" transform="translate(-484.61 -441.25)"/><path class="cls-2" d="M759.25,517.59v9.95a.88.88,0,0,1-.3.68,1,1,0,0,1-.7.27h-11v37.1a.94.94,0,0,1-.3.73,1,1,0,0,1-.7.27H734.2a.9.9,0,0,1-.67-.27,1,1,0,0,1-.28-.73v-37.1h-11a1,1,0,0,1-.72-.27.9.9,0,0,1-.28-.68v-9.95a.94.94,0,0,1,.28-.72,1,1,0,0,1,.72-.28h36a1,1,0,0,1,.7.28A.92.92,0,0,1,759.25,517.59Z" transform="translate(-484.61 -441.25)"/></svg>